<svg width="64" height="64" viewBox="0 0 64 64" fill="none" xmlns="http://www.w3.org/2000/svg">
  <rect width="64" height="64" rx="16" fill="#111827"/>
  <path d="M32 7L54 14V30C54 44.5 45.5 55.6 32 60C18.5 55.6 10 44.5 10 30V14L32 7Z" fill="#2E7DFF"/>
  <path d="M32 56C20.4 51.8 13 42 13 30.2V16.3L32 10.2L51 16.3V30.2C51 42 43.6 51.8 32 56Z" fill="#2563EB"/>
  <path d="M32 46L20.1 34.5C17.2 31.7 17 27.1 19.7 24.1C22.4 21.1 27.1 21 30 23.9L32 25.9L34 23.9C36.9 21 41.6 21.1 44.3 24.1C47 27.1 46.8 31.7 43.9 34.5L32 46Z" fill="#111827"/>
</svg>
