<svg width="860" height="260" viewBox="0 0 860 260" fill="none" xmlns="http://www.w3.org/2000/svg">
  <rect width="860" height="260" fill="#111827"/>
  <rect x="58" y="50" width="216" height="216" rx="60" fill="#1E3A8A" fill-opacity=".32" stroke="#1D4ED8" stroke-opacity=".72" stroke-width="5"/>
  <path d="M166 95L217 112V149C217 183 197.4 208.8 166 219C134.6 208.8 115 183 115 149V112L166 95Z" fill="#2E7DFF"/>
  <path d="M166 178L138.6 151.5C132 145.1 131.5 134.5 137.7 127.6C144 120.7 154.8 120.5 161.5 127.2L166 131.7L170.5 127.2C177.2 120.5 188 120.7 194.3 127.6C200.5 134.5 200 145.1 193.4 151.5L166 178Z" fill="#111827"/>
  <text x="310" y="203" fill="#F8FAFC" font-family="Plus Jakarta Sans, Inter, Arial, sans-serif" font-size="112" font-weight="800">VaxiTrust</text>
</svg>
